<?xml version="1.0" encoding="UTF-8" standalone="no"?>
<!DOCTYPE svg PUBLIC "-//W3C//DTD SVG 1.1//EN" "http://www.w3.org/Graphics/SVG/1.1/DTD/svg11.dtd">
<svg width="100%" height="100%" viewBox="0 0 4167 4167" version="1.1" xmlns="http://www.w3.org/2000/svg" xmlns:xlink="http://www.w3.org/1999/xlink" xml:space="preserve" xmlns:serif="http://www.serif.com/" style="fill-rule:evenodd;clip-rule:evenodd;stroke-miterlimit:10;">
    <g transform="matrix(5166.31,0,0,5166.31,939.291,3917.84)">
        <path d="M0.215,-0.363L0.215,-0.234C0.215,-0.19 0.215,-0.146 0.216,-0.104C0.217,-0.074 0.22,-0.055 0.223,-0.049C0.227,-0.043 0.233,-0.039 0.241,-0.036C0.25,-0.034 0.273,-0.032 0.312,-0.031L0.312,0C0.252,-0.003 0.208,-0.004 0.179,-0.004C0.168,-0.004 0.117,-0.003 0.026,0L0.026,-0.031C0.065,-0.032 0.088,-0.034 0.097,-0.036C0.105,-0.039 0.111,-0.043 0.114,-0.048C0.118,-0.054 0.121,-0.07 0.122,-0.095C0.122,-0.102 0.123,-0.148 0.124,-0.234L0.124,-0.363L0.215,-0.363Z" style="fill:rgb(176,173,173);"/>
    </g>
    <g transform="matrix(5166.31,0,0,5166.31,939.291,3917.84)">
        <path d="M0.12,-0.626C0.119,-0.635 0.117,-0.642 0.115,-0.645C0.111,-0.65 0.105,-0.655 0.097,-0.657C0.089,-0.66 0.065,-0.662 0.026,-0.663L0.026,-0.694C0.092,-0.692 0.144,-0.691 0.182,-0.691C0.207,-0.691 0.234,-0.691 0.263,-0.692L0.339,-0.694C0.348,-0.695 0.356,-0.695 0.363,-0.695C0.415,-0.695 0.455,-0.689 0.485,-0.678C0.514,-0.666 0.538,-0.648 0.554,-0.623C0.571,-0.598 0.579,-0.57 0.579,-0.538C0.579,-0.509 0.572,-0.481 0.558,-0.453C0.545,-0.424 0.524,-0.4 0.498,-0.381C0.472,-0.361 0.444,-0.347 0.416,-0.338C0.396,-0.333 0.374,-0.33 0.349,-0.33C0.328,-0.33 0.306,-0.332 0.282,-0.336L0.271,-0.373C0.3,-0.366 0.323,-0.363 0.34,-0.363C0.364,-0.363 0.387,-0.369 0.409,-0.381C0.431,-0.392 0.448,-0.41 0.461,-0.434C0.473,-0.458 0.479,-0.485 0.479,-0.514C0.479,-0.542 0.473,-0.567 0.461,-0.59C0.449,-0.612 0.431,-0.629 0.407,-0.641C0.383,-0.653 0.353,-0.659 0.319,-0.659C0.288,-0.659 0.255,-0.653 0.219,-0.642C0.219,-0.637 0.218,-0.631 0.218,-0.626L0.12,-0.626Z" style="fill:rgb(176,173,173);"/>
    </g>
    <g transform="matrix(1.65857,0,0,1.65857,-748.169,-1373.56)">
        <circle cx="2382.83" cy="1551.37" r="299.496" style="fill:rgb(214,38,6);"/>
    </g>
    <g transform="matrix(1.65857,0,0,1.65857,-3141.14,323.256)">
        <circle cx="2382.83" cy="1551.37" r="299.496" style="fill:rgb(94,218,34);"/>
    </g>
    <g transform="matrix(1.65857,0,0,1.65857,-1034.99,-1273.37)">
        <rect x="1625.42" y="1215.35" width="192.877" height="757.521"/>
    </g>
    <g transform="matrix(1.65857,0,0,1.65857,-1034.99,-1273.37)">
        <g transform="matrix(0.602929,-0,-0,0.602929,624.023,767.751)">
            <path d="M1380.77,1088.25L1500.68,1215.29L1373.64,1335.21" style="fill:none;stroke:black;stroke-width:82.11px;"/>
            <path d="M760.7,2342.85L715.257,1192.64C715.257,1192.64 1310.05,1209.8 1500.68,1215.29" style="fill:none;stroke:black;stroke-width:82.11px;stroke-linejoin:round;stroke-miterlimit:1.5;"/>
        </g>
    </g>
    <g transform="matrix(1.0806,-0.0166704,-0.0166704,1.65809,1006.82,-1397.92)">
        <g transform="matrix(0.925552,0.00930548,0.00930548,0.603197,-918.851,833.851)">
            <path d="M2467.18,1104.1L2587.1,1231.14L2460.06,1351.05" style="fill:none;stroke:black;stroke-width:82.11px;"/>
            <path d="M2095.84,1216.97C2095.84,1216.97 2445.88,1227.06 2587.1,1231.14" style="fill:none;stroke:black;stroke-width:82.11px;stroke-linejoin:round;stroke-miterlimit:1.5;"/>
        </g>
    </g>
    <g transform="matrix(1.65857,0,0,1.65857,-3958.72,-1517.46)">
        <ellipse cx="2769.67" cy="2720.16" rx="85.582" ry="93.362"/>
    </g>
    <g transform="matrix(1.65857,0,0,1.65857,-3792.27,-1819.24)">
        <ellipse cx="2769.67" cy="2720.16" rx="85.582" ry="93.362"/>
    </g>
    <g transform="matrix(1.65857,0,0,1.65857,-3624.46,-1511.09)">
        <ellipse cx="2769.67" cy="2720.16" rx="85.582" ry="93.362"/>
    </g>
    <g transform="matrix(1.65857,0,0,1.65857,-1171.44,-3123.91)">
        <ellipse cx="2769.67" cy="2720.16" rx="85.582" ry="93.362"/>
    </g>
</svg>
